<svg xmlns="http://www.w3.org/2000/svg" xmlns:xlink="http://www.w3.org/1999/xlink" viewBox="0 0 442.35 435.08"><defs><style>.cls-1{fill:none;stroke:#939598;stroke-miterlimit:10;stroke-width:1.6px;}.cls-2{fill:#1b75bc;}.cls-3{fill:url(#linear-gradient);}.cls-4{fill:url(#linear-gradient-2);}.cls-5{fill:url(#linear-gradient-3);}.cls-6{fill:url(#linear-gradient-4);}.cls-7{fill:url(#linear-gradient-5);}.cls-8{fill:url(#linear-gradient-6);}.cls-9{fill:url(#linear-gradient-7);}.cls-10{fill:url(#linear-gradient-8);}.cls-11{fill:url(#linear-gradient-9);}.cls-12{fill:url(#linear-gradient-10);}.cls-13{fill:url(#linear-gradient-11);}.cls-14{fill:url(#linear-gradient-12);}.cls-15{fill:url(#linear-gradient-13);}.cls-16{fill:url(#linear-gradient-14);}.cls-17{fill:url(#linear-gradient-15);}.cls-18{fill:url(#linear-gradient-16);}.cls-19{fill:url(#linear-gradient-17);}.cls-20{fill:url(#linear-gradient-18);}.cls-21{fill:url(#linear-gradient-19);}.cls-22{fill:url(#linear-gradient-20);}.cls-23{fill:url(#linear-gradient-21);}.cls-24{fill:url(#linear-gradient-22);}.cls-25{fill:url(#linear-gradient-23);}.cls-26{fill:url(#linear-gradient-24);}.cls-27{fill:url(#linear-gradient-25);}.cls-28{fill:url(#linear-gradient-26);}.cls-29{fill:url(#linear-gradient-27);}.cls-30{fill:url(#linear-gradient-28);}.cls-31{fill:url(#linear-gradient-29);}.cls-32{fill:url(#linear-gradient-30);}.cls-33{fill:url(#linear-gradient-31);}.cls-34{fill:url(#linear-gradient-32);}.cls-35{fill:url(#linear-gradient-33);}.cls-36{fill:url(#linear-gradient-34);}.cls-37{fill:url(#linear-gradient-35);}.cls-38{fill:#53a647;}</style><linearGradient id="linear-gradient" x1="275.51" y1="77.69" x2="298.71" y2="77.69" gradientTransform="translate(-15.87 -3.24) rotate(0.43)" gradientUnits="userSpaceOnUse"><stop offset="0" stop-color="#6f82c0"/><stop offset="1" stop-color="#8f2686"/></linearGradient><linearGradient id="linear-gradient-2" x1="210.13" y1="42.28" x2="233.33" y2="42.28" xlink:href="#linear-gradient"/><linearGradient id="linear-gradient-3" x1="352.58" y1="44.38" x2="375.78" y2="44.38" xlink:href="#linear-gradient"/><linearGradient id="linear-gradient-4" x1="277.06" y1="12.69" x2="300.26" y2="12.69" xlink:href="#linear-gradient"/><linearGradient id="linear-gradient-5" x1="223.77" y1="173.59" x2="246.97" y2="173.59" xlink:href="#linear-gradient"/><linearGradient id="linear-gradient-6" x1="301.35" y1="-10.76" x2="324.55" y2="-10.76" gradientTransform="translate(138.63 -66.3) rotate(48.35)" xlink:href="#linear-gradient"/><linearGradient id="linear-gradient-7" x1="235.97" y1="-46.17" x2="259.17" y2="-46.17" gradientTransform="translate(138.63 -66.3) rotate(48.35)" xlink:href="#linear-gradient"/><linearGradient id="linear-gradient-8" x1="378.42" y1="-44.07" x2="401.62" y2="-44.07" gradientTransform="translate(138.63 -66.3) rotate(48.35)" xlink:href="#linear-gradient"/><linearGradient id="linear-gradient-9" x1="302.9" y1="-75.76" x2="326.1" y2="-75.76" gradientTransform="translate(138.63 -66.3) rotate(48.35)" xlink:href="#linear-gradient"/><linearGradient id="linear-gradient-10" x1="249.61" y1="85.13" x2="272.81" y2="85.13" gradientTransform="translate(138.63 -66.3) rotate(48.35)" xlink:href="#linear-gradient"/><linearGradient id="linear-gradient-11" x1="245.72" y1="-93.81" x2="268.92" y2="-93.81" gradientTransform="translate(298.61 18.4) rotate(100.63)" xlink:href="#linear-gradient"/><linearGradient id="linear-gradient-12" x1="180.34" y1="-129.22" x2="203.54" y2="-129.22" gradientTransform="translate(298.61 18.4) rotate(100.63)" xlink:href="#linear-gradient"/><linearGradient id="linear-gradient-13" x1="322.79" y1="-127.12" x2="345.99" y2="-127.12" gradientTransform="translate(298.61 18.4) rotate(100.63)" xlink:href="#linear-gradient"/><linearGradient id="linear-gradient-14" x1="247.27" y1="-158.81" x2="270.47" y2="-158.81" gradientTransform="translate(298.61 18.4) rotate(100.63)" xlink:href="#linear-gradient"/><linearGradient id="linear-gradient-15" x1="193.98" y1="2.08" x2="217.18" y2="2.08" gradientTransform="translate(298.61 18.4) rotate(100.63)" xlink:href="#linear-gradient"/><linearGradient id="linear-gradient-16" x1="147.85" y1="-101.36" x2="171.05" y2="-101.36" gradientTransform="translate(330.47 193.27) rotate(151.9)" xlink:href="#linear-gradient"/><linearGradient id="linear-gradient-17" x1="82.48" y1="-136.77" x2="105.68" y2="-136.77" gradientTransform="translate(330.47 193.27) rotate(151.9)" xlink:href="#linear-gradient"/><linearGradient id="linear-gradient-18" x1="224.92" y1="-134.67" x2="248.12" y2="-134.67" gradientTransform="translate(330.47 193.27) rotate(151.9)" xlink:href="#linear-gradient"/><linearGradient id="linear-gradient-19" x1="149.41" y1="-166.36" x2="172.61" y2="-166.36" gradientTransform="translate(330.47 193.27) rotate(151.9)" xlink:href="#linear-gradient"/><linearGradient id="linear-gradient-20" x1="96.12" y1="-5.46" x2="119.32" y2="-5.46" gradientTransform="translate(330.47 193.27) rotate(151.9)" xlink:href="#linear-gradient"/><linearGradient id="linear-gradient-21" x1="82.03" y1="-33.63" x2="105.23" y2="-33.63" gradientTransform="translate(220.76 324.47) rotate(-158.91)" xlink:href="#linear-gradient"/><linearGradient id="linear-gradient-22" x1="16.66" y1="-69.04" x2="39.86" y2="-69.04" gradientTransform="translate(220.76 324.47) rotate(-158.91)" xlink:href="#linear-gradient"/><linearGradient id="linear-gradient-23" x1="159.1" y1="-66.93" x2="182.3" y2="-66.93" gradientTransform="translate(220.76 324.47) rotate(-158.91)" xlink:href="#linear-gradient"/><linearGradient id="linear-gradient-24" x1="83.59" y1="-98.62" x2="106.79" y2="-98.62" gradientTransform="translate(220.76 324.47) rotate(-158.91)" xlink:href="#linear-gradient"/><linearGradient id="linear-gradient-25" x1="30.3" y1="62.27" x2="53.5" y2="62.27" gradientTransform="translate(220.76 324.47) rotate(-158.91)" xlink:href="#linear-gradient"/><linearGradient id="linear-gradient-26" x1="87.19" y1="54.62" x2="110.39" y2="54.62" gradientTransform="translate(60.85 331.65) rotate(-113.05)" xlink:href="#linear-gradient"/><linearGradient id="linear-gradient-27" x1="21.82" y1="19.2" x2="45.02" y2="19.2" gradientTransform="translate(60.85 331.65) rotate(-113.05)" xlink:href="#linear-gradient"/><linearGradient id="linear-gradient-28" x1="164.26" y1="21.31" x2="187.46" y2="21.31" gradientTransform="translate(60.85 331.65) rotate(-113.05)" xlink:href="#linear-gradient"/><linearGradient id="linear-gradient-29" x1="88.75" y1="-10.38" x2="111.95" y2="-10.38" gradientTransform="translate(60.85 331.65) rotate(-113.05)" xlink:href="#linear-gradient"/><linearGradient id="linear-gradient-30" x1="36.62" y1="151" x2="59.82" y2="151" gradientTransform="translate(60.85 331.65) rotate(-113.05)" xlink:href="#linear-gradient"/><linearGradient id="linear-gradient-31" x1="174.66" y1="116.94" x2="197.86" y2="116.94" gradientTransform="translate(-67.74 185.74) rotate(-56.55)" xlink:href="#linear-gradient"/><linearGradient id="linear-gradient-32" x1="109.29" y1="81.53" x2="132.49" y2="81.53" gradientTransform="translate(-67.74 185.74) rotate(-56.55)" xlink:href="#linear-gradient"/><linearGradient id="linear-gradient-33" x1="251.73" y1="83.63" x2="274.93" y2="83.63" gradientTransform="translate(-67.74 185.74) rotate(-56.55)" xlink:href="#linear-gradient"/><linearGradient id="linear-gradient-34" x1="176.22" y1="51.94" x2="199.42" y2="51.94" gradientTransform="translate(-67.74 185.74) rotate(-56.55)" xlink:href="#linear-gradient"/><linearGradient id="linear-gradient-35" x1="124.08" y1="214.58" x2="147.28" y2="214.58" gradientTransform="translate(-67.74 185.74) rotate(-56.55)" xlink:href="#linear-gradient"/></defs><title>Asset 1</title><g id="Layer_2" data-name="Layer 2"><g id="Layer_1-2" data-name="Layer 1"><line class="cls-1" x1="220.76" y1="206.68" x2="248.61" y2="185.46"/><line class="cls-1" x1="226.43" y1="214.7" x2="258.63" y2="220.07"/><line class="cls-1" x1="224.17" y1="223.9" x2="236.77" y2="243.38"/><line class="cls-1" x1="206.6" y1="249.13" x2="212.97" y2="228.16"/><line class="cls-1" x1="183.99" y1="229.42" x2="211.37" y2="215.1"/><line class="cls-1" x1="185.27" y1="193.5" x2="206.6" y2="206.68"/><line class="cls-1" x1="218.2" y1="175.5" x2="218.2" y2="195.85"/><path class="cls-2" d="M204.23,42.34c10.63,5,16.93,15.58,25.94,22.74a66.56,66.56,0,0,0,30.14,13.23c2.42.41,4.64-3,1.55-3.59a62.26,62.26,0,0,1-31.81-15.59c-7.62-7-13.57-15.56-23.19-20.09-2.08-1-5.34,2-2.63,3.3Z"/><path class="cls-2" d="M270.36,11.85l-.23,31.78c0,2.59-.8,30.3-.17,30.38-2-.25-4.85,2.51-1.74,2.9a5.35,5.35,0,0,0,6-3.74c.88-2.5.42-5.6.44-8.19l.08-10.92L275,11.35c0-2.11-4.65-1.23-4.66.5Z"/><path class="cls-2" d="M340.72,43.47c-11.31,9.51-24,13.93-38.48,16-9.2,1.28-20.41,4.53-22.46,15-.34,1.76,4.33,1,4.64-.58,2.7-13.84,22.37-11.69,33-14.88a75.69,75.69,0,0,0,27-14.73c2-1.71-2.56-1.75-3.72-.77Z"/><path class="cls-2" d="M268.51,88.42c5.15,8.35,10.41,17,11.05,27,.6,9.46-2.71,18.78-8.06,26.49-11.91,17.18-32.93,25.84-52.86,29.33-1.82.32-4.15,2.22-.88,1.64,19.71-3.45,40.43-11.18,54.08-26.46,6.55-7.33,11.23-16.4,12.23-26.26,1.27-12.39-4.65-22.84-10.93-33-.68-1.11-5,.68-4.63,1.24Z"/><circle class="cls-3" cx="270.65" cy="76.59" r="11.6"/><circle class="cls-4" cx="205.54" cy="40.69" r="11.6"/><circle class="cls-5" cx="347.96" cy="43.85" r="11.6"/><circle class="cls-6" cx="272.69" cy="11.6" r="11.6"/><circle class="cls-7" cx="218.2" cy="172.09" r="11.6"/><path class="cls-2" d="M335.34,88.63c3.54,11.9-.34,24.28.74,36.42a65.65,65.65,0,0,0,10.09,29.25c1.2,1.9,5.59,0,4.23-2.11a62.59,62.59,0,0,1-9.88-32.46c-.14-10.88,2.64-21.65-.54-32.34-.68-2.27-5.31-1-4.64,1.24Z"/><path class="cls-2" d="M402.36,117.87l-22.26,19.8c-2.28,2-23,20.59-23.52,19.86-1-1.43-5.48.19-4.29,1.9,1.74,2.49,5.22,1.59,7.5.31,5-2.84,9.39-8,13.7-11.84l32.65-29.05c2.05-1.83-2.51-2.12-3.78-1Z"/><path class="cls-2" d="M428.56,190.58c-14.87-2-27.2-8.52-38.55-18.12-7.8-6.59-17.54-11.78-27.32-5.9-2.68,1.61,1.37,2.3,2.88,1.39,10.61-6.38,22.86,9.45,30.86,14.57a72.58,72.58,0,0,0,29.29,10.59c1.48.21,5.44-2.17,2.84-2.53Z"/><path class="cls-2" d="M344.15,168.46c-2.59,8.91-5.26,18.21-11.66,25.24-7,7.65-16.91,11.55-27.14,12-20,.87-39.22-9-54.56-21-1-.76-5,1.08-4.37,1.56,17.48,13.64,39.86,24.09,62.53,20.7,8.73-1.3,17.34-4.57,24.17-10.24,9-7.43,12.46-18.28,15.6-29.08.25-.85-4.23-.32-4.57.84Z"/><circle class="cls-8" cx="354.64" cy="160.39" r="11.6"/><circle class="cls-9" cx="337.66" cy="88.01" r="11.6"/><circle class="cls-10" cx="430.75" cy="195.85" r="11.6"/><circle class="cls-11" cx="404.25" cy="118.36" r="11.6"/><circle class="cls-12" cx="248.61" cy="185.46" r="11.6"/><path class="cls-2" d="M388.24,230.12c-6.82,9.59-18.26,13.91-26.91,21.51a66.52,66.52,0,0,0-18.46,27.25c-.94,2.59,3.7,2.75,4.47.65a62.08,62.08,0,0,1,20.87-28.61c8.25-6.24,17.81-10.62,24-19.26,1.73-2.43-2.6-3.41-3.93-1.54Z"/><path class="cls-2" d="M408.33,300.76l-30.26-5.68-14.65-2.74c-2.06-.39-17.21-1.95-16.37-5.32.48-1.9-4.22-1.25-4.66.5-.95,3.82,3.74,4.79,6.54,5.36,6.16,1.25,12.37,2.32,18.55,3.48l38.07,7.14c1.66.31,5.47-2.24,2.78-2.74Z"/><path class="cls-2" d="M365.13,364.57a71.8,71.8,0,0,1-9.56-39.09c.41-9.65.82-22.15-10-26.3-1.4-.53-5.61,1.52-3.69,2.26,12.16,4.65,8.79,20.21,9,30.26a71.2,71.2,0,0,0,9.65,34.12c.9,1.56,5.36,0,4.64-1.25Z"/><path class="cls-2" d="M331.48,286.3c-10.71,4.22-21.26,7.84-32.69,4.23-9-2.85-16.82-9.11-22.5-16.58-11.66-15.35-15.42-35.63-15.34-54.5,0-.68-4.63,0-4.63,1.24-.1,21.87,5.12,46.23,21.8,61.67a42.75,42.75,0,0,0,24.32,11.47c10.68,1.11,20.86-2.7,30.63-6.55,3.06-1.2.16-1.67-1.59-1Z"/><circle class="cls-13" cx="343.34" cy="288.61" r="11.6"/><circle class="cls-14" cx="390.2" cy="230.89" r="11.6"/><circle class="cls-15" cx="361.86" cy="370.5" r="11.6"/><circle class="cls-16" cx="406.94" cy="302.13" r="11.6"/><circle class="cls-17" cx="258.63" cy="220.07" r="11.6"/><path class="cls-2" d="M312.09,356.42c-12.14.64-23.1-6-34.9-7.78a67.44,67.44,0,0,0-31.64,2.93c-2.8.95-1.94,4.39.91,3.43a61.43,61.43,0,0,1,35-1.59c10.17,2.58,19.59,7.21,30.32,6.64,2.71-.14,3.5-3.8.35-3.63Z"/><path class="cls-2" d="M269.13,415.24l-15.44-28.91c-1.25-2.33-14.73-26.61-13.26-27.19,3-1.17.3-3.08-1.91-2.21-2.66,1-3.4,3.25-2.54,6,1.91,6,6.35,12.09,9.33,17.67l19.18,35.91c.92,1.72,5.44.26,4.64-1.24Z"/><path class="cls-2" d="M192.32,420.61a70.71,70.71,0,0,1,24.33-31.45c7.78-5.73,17.82-13.31,14.34-24.37-.51-1.63-5.13-.34-4.63,1.24,4.25,13.52-12.47,20.66-20.48,28.11a72.91,72.91,0,0,0-18.19,27.05c-.59,1.51,4,1,4.63-.58Z"/><path class="cls-2" d="M234.24,347.25c-8.9-5.1-18-10.41-23.25-19.6-4.87-8.54-6.05-18.73-4.55-28.34,3.22-20.67,17.79-38,33.69-50.67.92-.73-3.32-.31-4.19.39-16.11,12.8-30.84,30.4-34.13,51.32-1.53,9.68-.35,19.93,4.54,28.54,5.28,9.3,14.5,14.75,23.52,19.91,1.14.65,4.9-1.25,4.37-1.55Z"/><circle class="cls-18" cx="237.57" cy="357.79" r="11.6"/><circle class="cls-19" cx="311.91" cy="358.24" r="11.6"/><circle class="cls-20" cx="185.27" cy="423.48" r="11.6"/><circle class="cls-21" cx="266.81" cy="415.86" r="11.6"/><circle class="cls-22" cx="238.03" cy="248.83" r="11.6"/><path class="cls-2" d="M171.66,377.66c-8.12-8.38-10.39-20.12-16.1-30A65.33,65.33,0,0,0,132,324.19c-1.88-1.11-5.86,1.44-3.54,2.8a63.15,63.15,0,0,1,23.64,24.14c5.22,9.57,7.55,20.6,15.34,28.64,1.56,1.61,5.93-.35,4.23-2.11Z"/><path class="cls-2" d="M98.78,382c1.8-4.66,22.57-56.66,21.76-57,1.52.7,5.71-1.46,3.64-2.4a5.72,5.72,0,0,0-7,1.67c-1.76,2-2.46,4.87-3.4,7.29l-3.93,10.2L94.12,382.48c-.66,1.71,4,1.18,4.66-.5Z"/><path class="cls-2" d="M43.36,328.35a67,67,0,0,1,23.34-3.86c7.54.13,14.47,2.16,21.81,3.47,8.41,1.49,18.5.46,23.37-7.51,1.13-1.85-3.52-1.42-4.32-.11-6.82,11.18-24.32,2.58-34.48,1.74a75.93,75.93,0,0,0-31.55,4.35c-3.05,1.07-.28,2.66,1.83,1.92Z"/><path class="cls-2" d="M127.41,311c-1.86-9.54-3.77-19.45-.83-29a40.92,40.92,0,0,1,13.48-19.42c17.12-13.95,41.4-14.3,62.11-10.39,1.07.2,5-1.53,3.82-1.76-21.12-4-44.93-3.29-63.82,8.1-7.81,4.71-14.66,11.48-18.47,19.86-5,10.93-3.15,22.45-.93,33.84.18.91,4.85-.16,4.64-1.25Z"/><circle class="cls-23" cx="121.3" cy="322.15" r="11.6"/><circle class="cls-24" cx="169.55" cy="378.72" r="11.6"/><circle class="cls-25" cx="37.41" cy="325.49" r="11.6"/><circle class="cls-26" cx="96.45" cy="382.23" r="11.6"/><circle class="cls-27" cx="204.08" cy="251.3" r="11.6"/><path class="cls-2" d="M67.79,293.23c.4-11.94,7.57-22,10.56-33.34a65.73,65.73,0,0,0,.14-32.35c-.56-2.29-5.2-1.06-4.64,1.24a62.69,62.69,0,0,1-1.5,35.51C68.93,274,63.43,283,63.08,293.52c-.09,2.54,4.64,2,4.71-.29Z"/><path class="cls-2" d="M13,244.48l27.42-11.67c2.95-1.26,28.77-12.81,29.32-10.95s5.16.55,4.63-1.24c-.85-2.92-4.28-2.85-6.79-2.25-5.84,1.41-11.68,4.82-17.2,7.17L11.05,242.27c-3,1.26-.29,3.15,1.91,2.21Z"/><path class="cls-2" d="M11.91,167.55a71.15,71.15,0,0,1,29.36,27.06c5.65,9.28,12.39,19.09,24.66,16.39,2.83-.63,2.18-3-.62-2.34-12.54,2.76-19.19-16.26-25.2-23.79A72.36,72.36,0,0,0,15.59,165.3c-1.36-.68-5.6,1.3-3.68,2.25Z"/><path class="cls-2" d="M84.92,214.31c5.87-8.44,12-17.28,21.9-21.32,10.17-4.18,22-2.56,31.94,1.51,16.77,6.88,30,20.66,39.84,35.54.73,1.1,5-.73,4.64-1.24-12.17-18.44-30.24-36-53-39.49a48.28,48.28,0,0,0-27.23,3.59C93,197.54,86.53,206.27,80.36,215.15c-.28.39,3.79.28,4.56-.84Z"/><circle class="cls-28" cx="72.42" cy="219.36" r="11.6"/><circle class="cls-29" cx="65.43" cy="293.38" r="11.6"/><circle class="cls-30" cx="11.6" cy="161.48" r="11.6"/><circle class="cls-31" cx="12.01" cy="243.38" r="11.6"/><circle class="cls-32" cx="180.92" cy="228.16" r="11.6"/><path class="cls-2" d="M68,131.31c10.43-6.43,23.27-5.83,34.58-9.91a67.5,67.5,0,0,0,26.63-17.84c2-2.17-2.4-3.19-3.92-1.55a61.12,61.12,0,0,1-29.78,17.86c-10,2.53-20.59,2.89-29.63,8.47-2.65,1.63-.22,4.41,2.12,3Z"/><path class="cls-2" d="M77.31,58.87l26.52,17.52,13.26,8.76c2.19,1.44,13.61,7.33,11.44,10.22-1.34,1.79,3.35,1.6,4.36.25,2.37-3.15-1.43-5.78-3.87-7.4-5.23-3.49-10.5-6.94-15.74-10.4L81,56.47c-1.42-.93-5.64,1.09-3.65,2.4Z"/><path class="cls-2" d="M142,17.28a72.33,72.33,0,0,1-6.71,40.18c-4,8.5-8.79,19.57-.7,27.32,1.18,1.13,5.56-.62,4.31-1.82-9.66-9.25,0-22.56,3.72-32.21a71.88,71.88,0,0,0,4-34.71c-.19-1.56-4.85-.52-4.63,1.24Z"/><path class="cls-2" d="M140.49,101.69c10.69.25,21.51.73,30.62,7,7.31,5,12.56,12.49,15.69,20.7,7.62,20,3,42.82-5.09,61.91-.29.69,4.07.33,4.57-.84,8.49-19.95,13.24-44.35,4.07-64.94A43.12,43.12,0,0,0,173.82,106c-9.14-5.55-19.91-5.92-30.31-6.16-1,0-5.24,1.78-3,1.84Z"/><circle class="cls-33" cx="132.5" cy="94.8" r="11.6"/><circle class="cls-34" cx="66.92" cy="129.82" r="11.6"/><circle class="cls-35" cx="147.2" cy="12.14" r="11.6"/><circle class="cls-36" cx="79.13" cy="57.67" r="11.6"/><circle class="cls-37" cx="186.08" cy="190.83" r="11.6"/><circle class="cls-38" cx="219.48" cy="213.34" r="20.47"/></g></g></svg>