<?xml version="1.0" ?><!DOCTYPE svg  PUBLIC '-//W3C//DTD SVG 1.1//EN'  'http://www.w3.org/Graphics/SVG/1.1/DTD/svg11.dtd'><svg enable-background="new 0 0 500 500" height="500px" id="Layer_1" version="1.1" viewBox="0 0 500 500" width="500px" xml:space="preserve" xmlns="http://www.w3.org/2000/svg" xmlns:xlink="http://www.w3.org/1999/xlink"><path clip-rule="evenodd" d="M48.841,311.955L31.949,443.616  c0,13.53,10.903,24.435,24.434,24.435l131.651-16.899c3.903-0.542,7.816-2.361,10.815-5.448c7.63-7.631,7.63-19.892,0-27.534  l-21.985-21.985l48.878-48.789c8.083-8.084,8.083-21.172,0-29.253l-43.885-43.883c-8.091-8.085-21.169-8.085-29.26,0l-48.781,48.789  L81.831,301.15c-7.632-7.63-19.901-7.63-27.533,0C51.21,304.15,49.392,308.054,48.841,311.955z M451.151,311.955  c-0.542-3.901-2.361-7.805-5.448-10.805c-7.631-7.63-19.904-7.63-27.534,0l-21.985,21.897l-48.789-48.789  c-8.084-8.085-21.172-8.085-29.253,0l-43.883,43.883c-8.093,8.081-8.093,21.169,0,29.253l48.877,48.789l-21.985,21.985  c-7.63,7.643-7.63,19.903,0,27.534c3,3.087,6.903,4.906,10.805,5.448l131.661,16.899c13.53,0,24.435-10.904,24.435-24.435  L451.151,311.955z M48.841,188.042c0.551,3.905,2.37,7.808,5.457,10.807c7.632,7.63,19.901,7.63,27.533,0l21.986-21.897  l48.781,48.791c8.091,8.083,21.169,8.083,29.26,0l43.885-43.885c8.083-8.081,8.083-21.169,0-29.253l-48.878-48.789l21.985-21.986  c7.63-7.632,7.63-19.901,0-27.533c-3-3.087-6.912-4.906-10.815-5.446L56.383,31.949c-13.531,0-24.434,10.903-24.434,24.434  L48.841,188.042z M451.151,188.042l16.899-131.659c0-13.531-10.904-24.434-24.435-24.434L311.955,48.851  c-3.901,0.541-7.805,2.359-10.805,5.446c-7.63,7.632-7.63,19.901,0,27.533l21.985,21.986l-48.877,48.789  c-8.093,8.083-8.093,21.172,0,29.253l43.883,43.885c8.081,8.083,21.169,8.083,29.253,0l48.789-48.791l21.985,21.897  c7.63,7.63,19.903,7.63,27.534,0C448.79,195.85,450.609,191.947,451.151,188.042z" fill="#010101" fill-rule="evenodd"/></svg>