<?xml version="1.0" encoding="iso-8859-1"?>
<!-- Generator: Adobe Illustrator 19.0.0, SVG Export Plug-In . SVG Version: 6.00 Build 0)  -->
<svg version="1.1" id="Capa_1" xmlns="http://www.w3.org/2000/svg" xmlns:xlink="http://www.w3.org/1999/xlink" x="0px" y="0px"
	 viewBox="0 0 512 512" style="enable-background:new 0 0 512 512;" xml:space="preserve">
<g>
	<g>
		<path d="M418.271,246.193l-75.282-43.79v-46.752c0.001-0.043,0.009-0.086,0.009-0.129c0.004-2.676-1.417-5.15-3.729-6.496
			l-85.886-49.959c-3.581-2.08-8.17-0.867-10.254,2.712c-2.083,3.581-0.869,8.172,2.712,10.255l74.697,43.45l-108.046,62.36
			l-30.331-17.507l-77.704-44.852l108.036-62.849l7.805,4.54c3.579,2.083,8.172,0.869,10.254-2.711
			c2.082-3.58,0.869-8.172-2.711-10.254l-11.576-6.734c-2.332-1.357-5.211-1.357-7.543,0L85.754,149.011
			c-0.002,0.001-0.004,0.002-0.005,0.003c-0.002,0.001-0.004,0.002-0.005,0.004l-0.016,0.009c-0.107,0.062-0.201,0.138-0.304,0.205
			c-0.174,0.113-0.351,0.22-0.513,0.346c-0.101,0.078-0.189,0.169-0.286,0.252c-0.152,0.131-0.309,0.257-0.45,0.398
			c-0.087,0.087-0.16,0.186-0.242,0.277c-0.135,0.151-0.276,0.297-0.398,0.458c-0.072,0.094-0.13,0.198-0.197,0.295
			c-0.116,0.169-0.238,0.334-0.34,0.512c-0.063,0.109-0.109,0.225-0.166,0.337c-0.09,0.176-0.186,0.35-0.262,0.533
			c-0.052,0.125-0.086,0.256-0.131,0.384c-0.063,0.179-0.133,0.354-0.182,0.538c-0.038,0.14-0.057,0.286-0.086,0.429
			c-0.037,0.177-0.082,0.353-0.106,0.533c-0.022,0.163-0.022,0.331-0.033,0.496c-0.011,0.163-0.032,0.324-0.032,0.489v101.805
			c0,4.143,3.358,7.5,7.5,7.5c4.142,0,7.5-3.357,7.5-7.5v-88.815l107.991,62.334v127.136L96.999,295.634v-5.82
			c0-4.143-3.358-7.5-7.5-7.5c-4.142,0-7.5,3.357-7.5,7.5v10.151c0,2.68,1.43,5.156,3.751,6.495l122.995,70.994
			c1.16,0.669,2.455,1.004,3.75,1.004s2.59-0.335,3.75-1.005c0.027-0.015,0.05-0.035,0.076-0.051l30.174-17.416l80.244,46.316
			c0.003,0.002,0.006,0.004,0.009,0.006c1.161,0.67,2.456,1.005,3.75,1.005c0.587,0,1.172-0.078,1.746-0.216
			c0.059-0.014,0.12-0.02,0.179-0.035c0.109-0.029,0.215-0.075,0.323-0.109c0.204-0.064,0.409-0.123,0.608-0.205
			c0.025-0.01,0.048-0.026,0.073-0.036c0.278-0.118,0.553-0.249,0.819-0.403l84-48.483c2.321-1.34,3.751-3.816,3.751-6.496v-5.684
			c0-4.143-3.358-7.5-7.5-7.5c-4.142,0-7.5,3.357-7.5,7.5v1.353l-69,39.826v-81.333l69-39.825v47.813c0,4.143,3.358,7.5,7.5,7.5
			c4.142,0,7.5-3.357,7.5-7.5v-60.748c0-0.014,0.003-0.028,0.003-0.043C422.004,250.013,420.583,247.539,418.271,246.193z
			 M242.755,246.179c-0.002,0.001-0.004,0.002-0.005,0.003c-0.002,0.001-0.004,0.002-0.005,0.004l-0.016,0.009
			c-0.107,0.062-0.201,0.138-0.304,0.205c-0.174,0.113-0.351,0.22-0.513,0.346c-0.101,0.078-0.189,0.169-0.286,0.252
			c-0.152,0.131-0.309,0.257-0.45,0.398c-0.087,0.087-0.16,0.186-0.242,0.277c-0.135,0.151-0.276,0.297-0.398,0.458
			c-0.072,0.094-0.13,0.198-0.197,0.295c-0.116,0.169-0.238,0.334-0.34,0.512c-0.063,0.109-0.109,0.225-0.166,0.337
			c-0.09,0.176-0.186,0.35-0.262,0.533c-0.052,0.125-0.086,0.256-0.131,0.384c-0.063,0.179-0.133,0.354-0.182,0.538
			c-0.038,0.14-0.057,0.286-0.086,0.429c-0.037,0.177-0.082,0.353-0.106,0.533c-0.022,0.163-0.022,0.331-0.033,0.496
			c-0.011,0.163-0.032,0.324-0.032,0.489v94.315l-19.007,10.971V230.834l107.996-62.332v28.259c-0.433,0.154-0.858,0.334-1.264,0.57
			L242.755,246.179z M322.998,386.825l-68.997-39.826v-81.333l68.997,39.826V386.825z M330.497,292.501l-19.218-11.093
			l-49.819-28.757l69.038-40.161l69.042,40.16L330.497,292.501z"/>
	</g>
</g>
<g>
	<g>
		<path d="M504.5,38.5c-4.142,0-7.5,3.357-7.5,7.5v49.913h-12.646c-4.142,0-7.5,3.357-7.5,7.5c0,4.143,3.358,7.5,7.5,7.5H497v62.2
			h-12.646c-4.142,0-7.5,3.357-7.5,7.5s3.358,7.5,7.5,7.5H497v62.2h-12.646c-4.142,0-7.5,3.357-7.5,7.5s3.358,7.5,7.5,7.5H497v62.2
			h-12.646c-4.142,0-7.5,3.357-7.5,7.5s3.358,7.5,7.5,7.5H497v62.2h-12.646c-4.142,0-7.5,3.357-7.5,7.5s3.358,7.5,7.5,7.5H497V458.5
			h-40.5v-12.515c0-4.143-3.358-7.5-7.5-7.5c-4.142,0-7.5,3.357-7.5,7.5V458.5h-62.2v-12.515c0-4.143-3.358-7.5-7.5-7.5
			c-4.142,0-7.5,3.357-7.5,7.5V458.5h-62.2v-12.515c0-4.143-3.358-7.5-7.5-7.5c-4.142,0-7.5,3.357-7.5,7.5V458.5h-62.2v-12.515
			c0-4.143-3.358-7.5-7.5-7.5c-4.142,0-7.5,3.357-7.5,7.5V458.5h-62.2v-12.515c0-4.143-3.358-7.5-7.5-7.5
			c-4.142,0-7.5,3.357-7.5,7.5V458.5H70.5v-12.515c0-4.143-3.358-7.5-7.5-7.5c-4.142,0-7.5,3.357-7.5,7.5V458.5h-48
			c-4.142,0-7.5,3.357-7.5,7.5s3.358,7.5,7.5,7.5h497c4.142,0,7.5-3.357,7.5-7.5V46C512,41.857,508.642,38.5,504.5,38.5z"/>
	</g>
</g>
<g>
</g>
<g>
</g>
<g>
</g>
<g>
</g>
<g>
</g>
<g>
</g>
<g>
</g>
<g>
</g>
<g>
</g>
<g>
</g>
<g>
</g>
<g>
</g>
<g>
</g>
<g>
</g>
<g>
</g>
</svg>
